<svg xmlns="http://www.w3.org/2000/svg" viewBox="0 0 512 768" width="512" height="768" role="img" aria-label="Gundam"><title>Gundam</title><defs><linearGradient id="gold" x2="1" y2=".4"><stop stop-color="#ffe478"/><stop offset=".5" stop-color="#efbc24"/><stop offset="1" stop-color="#c68c12"/></linearGradient><linearGradient id="silver"><stop stop-color="#778893"/><stop offset=".45" stop-color="#f3f8f8"/><stop offset="1" stop-color="#81919a"/></linearGradient></defs><g transform="rotate(2.4492935982947064e-16 256 480)"><animateTransform attributeName="transform" type="rotate" values="2.4492935982947064e-16 256 480;2 256 480;-2 256 480;2.4492935982947064e-16 256 480" dur="2.4s" repeatCount="indefinite"/><path d="M187 466 L174 586 151 678 207 691 252 489 M266 489 L303 689 361 678 331 470" fill="#dce5ef" stroke="#25302d" stroke-width="4" stroke-linejoin="round" stroke-linecap="round"/><path d="M153 674 L117 712 Q158 733 212 710 L207 676 M303 677 L298 709 Q353 737 389 714 L360 675" fill="#a7183a" stroke="#25302d" stroke-width="4" stroke-linejoin="round" stroke-linecap="round"/></g><path d="M179 260 L328 260 354 331 320 494 272 518 255 484 229 518 186 494 153 329" fill="#204caa" stroke="#25302d" stroke-width="4" stroke-linejoin="round" stroke-linecap="round"/><path d="M168 285 L249 306 337 281 329 345 271 364 254 420 228 357 172 340" fill="#173775" stroke="#25302d" stroke-width="4" stroke-linejoin="round" stroke-linecap="round"/><path d="M224 352 L282 352 297 438 268 482 239 463" fill="#c42243" stroke="#25302d" stroke-width="4" stroke-linejoin="round" stroke-linecap="round"/><path d="M183 433 L234 451 217 519 159 502 Z M277 451 L325 434 350 503 294 520 Z" fill="#e8eef3" stroke="#25302d" stroke-width="4" stroke-linejoin="round" stroke-linecap="round"/><g transform="rotate(0 180 290)"><animateTransform attributeName="transform" type="rotate" values="0 180 290;5 180 290;-5 180 290;0 180 290" dur="2.4s" repeatCount="indefinite"/><path d="M178 271 L126 277 91 380 140 456 178 431 142 379 200 307" fill="#e8eef4" stroke="#25302d" stroke-width="4" stroke-linejoin="round" stroke-linecap="round"/><path d="M113 265 L179 261 196 317 136 343 90 318 Z M99 366 L146 372 165 420 127 443 Z" fill="#f2f7fb" stroke="#25302d" stroke-width="4" stroke-linejoin="round" stroke-linecap="round"/><path d="M137 438 L169 424 190 455 156 478 Z" fill="#515e6b" stroke="#25302d" stroke-width="4" stroke-linejoin="round" stroke-linecap="round"/></g><g transform="rotate(6.123233995736766e-16 330 290)"><animateTransform attributeName="transform" type="rotate" values="6.123233995736766e-16 330 290;5 330 290;-5 330 290;6.123233995736766e-16 330 290" dur="2.4s" repeatCount="indefinite"/><path d="M329 270 L380 279 419 380 369 455 333 431 370 379 307 306" fill="#e8eef4" stroke="#25302d" stroke-width="4" stroke-linejoin="round" stroke-linecap="round"/><path d="M328 261 L395 265 423 318 372 344 311 316 Z M372 371 L413 365 387 444 345 420 Z" fill="#f2f7fb" stroke="#25302d" stroke-width="4" stroke-linejoin="round" stroke-linecap="round"/><path d="M344 424 L375 438 357 478 324 455 Z" fill="#515e6b" stroke="#25302d" stroke-width="4" stroke-linejoin="round" stroke-linecap="round"/></g><g transform="rotate(1.1682550269259515 256 276)"><animateTransform attributeName="transform" type="rotate" values="1.1682550269259515 256 276;3 256 276;-3 256 276;1.1682550269259515 256 276" dur="2.4s" repeatCount="indefinite"/><path d="M212 251 L211 224 296 224 296 252" fill="#9f2436" stroke="#25302d" stroke-width="4" stroke-linejoin="round" stroke-linecap="round"/><path d="M200 119 Q253 65 311 120 L304 209 278 249 229 248 200 211 Z" fill="url(#silver)" stroke="#25302d" stroke-width="4" stroke-linejoin="round" stroke-linecap="round"/><path d="M200 130 L174 54 234 122 250 101 269 122 341 48 308 146 279 169 223 165" fill="#f6d24a" stroke="#25302d" stroke-width="4" stroke-linejoin="round" stroke-linecap="round"/><path d="M211 160 L248 175 224 190 Z M266 174 L300 156 288 187 Z" fill="#dcf55c" stroke="#25302d" stroke-width="4" stroke-linejoin="round" stroke-linecap="round"/><path d="M233 190 L277 191 288 225 256 235 226 222" fill="#f4f6fa" stroke="#25302d" stroke-width="4" stroke-linejoin="round" stroke-linecap="round"/><path d="M246 222 L267 222 272 248 248 251 Z" fill="#bf2545" stroke="#25302d" stroke-width="4" stroke-linejoin="round" stroke-linecap="round"/><path d="M238 202 L273 202 M238 212 L275 212" fill="none" stroke="#596775" stroke-width="3" stroke-linejoin="round" stroke-linecap="round"/></g></svg>